<svg width="114" height="99" viewBox="0 0 114 99" fill="none" xmlns="http://www.w3.org/2000/svg">
<circle cx="36" cy="63" r="36" fill="#FF9900"/>
<g clip-path="url(#clip0_166612_4130)">
<path fill-rule="evenodd" clip-rule="evenodd" d="M60.6783 9.29406C60.8397 9.01291 61.1976 8.91642 61.4775 9.07856L95.7071 28.9031C95.987 29.0652 96.0831 29.4245 95.9216 29.7057C95.7602 29.9868 95.4024 30.0833 95.1225 29.9212L60.8929 10.0967C60.613 9.93457 60.5169 9.57522 60.6783 9.29406Z" fill="black"/>
<path fill-rule="evenodd" clip-rule="evenodd" d="M74.1012 1.12491C75.3779 0.387964 76.8259 0 78.3 0C79.774 0 81.2221 0.387964 82.4988 1.12491C82.4992 1.12515 82.4996 1.12538 82.5 1.12561L109.8 16.7288C111.076 17.4654 112.135 18.5247 112.872 19.8003C113.61 21.0758 113.998 22.5229 114 23.9962V55.2038C113.998 56.6771 113.61 58.1241 112.872 59.3997C112.135 60.6753 111.076 61.7346 109.8 62.4712L109.798 62.4726L82.5 78.0744C82.4997 78.0745 82.4995 78.0746 82.4993 78.0748C81.2225 78.8119 79.7742 79.2 78.3 79.2C76.8257 79.2 75.3774 78.8119 74.1006 78.0748C74.1004 78.0746 74.1002 78.0745 74.1 78.0744L46.8023 62.4726L46.8 62.4712C45.5243 61.7346 44.4647 60.6753 43.7275 59.3997C42.9903 58.1241 42.6015 56.6771 42.6 55.2038V23.9962C42.6015 22.5229 42.9903 21.0758 43.7275 19.8003C44.4647 18.5247 45.5243 17.4654 46.8 16.7288L46.8023 16.7274L74.1 1.12561C74.1004 1.12538 74.1008 1.12515 74.1012 1.12491ZM78.3 1.20024C77.0361 1.20024 75.7945 1.53299 74.7 2.16505L74.6977 2.16638L47.4 17.7682C47.3996 17.7684 47.3992 17.7687 47.3988 17.7689C46.3058 18.4003 45.3981 19.308 44.7664 20.4009C44.1346 21.4942 43.8013 22.7344 43.8 23.9972V55.2028C43.8013 56.4656 44.1346 57.7058 44.7664 58.7991C45.398 59.892 46.3057 60.7996 47.3986 61.431C47.399 61.4313 47.3995 61.4315 47.4 61.4318L74.7 77.0349C75.7945 77.667 77.0361 77.9998 78.3 77.9998C79.5638 77.9998 80.8054 77.667 81.9 77.0349L81.9023 77.0336L109.2 61.4318C109.2 61.4315 109.201 61.4313 109.201 61.431C110.294 60.7996 111.202 59.892 111.834 58.7991C112.465 57.7057 112.799 56.4654 112.8 55.2025V23.9975C112.799 22.7346 112.465 21.4943 111.834 20.4009C111.202 19.308 110.294 18.4003 109.201 17.7689C109.201 17.7687 109.2 17.7684 109.2 17.7682L81.9023 2.16638L81.9 2.16505C80.8054 1.53299 79.5638 1.20024 78.3 1.20024Z" fill="black"/>
<path fill-rule="evenodd" clip-rule="evenodd" d="M43.8796 20.0925C44.0434 19.8125 44.4057 19.7168 44.6888 19.8787L77.9999 38.9374L111.311 19.8787C111.594 19.7168 111.956 19.8125 112.12 20.0925C112.284 20.3725 112.187 20.7309 111.904 20.8929L78.2965 40.1212C78.113 40.2262 77.8868 40.2262 77.7034 40.1212L44.0957 20.8929C43.8126 20.7309 43.7158 20.3725 43.8796 20.0925Z" fill="black"/>
<path fill-rule="evenodd" clip-rule="evenodd" d="M77.9999 39C78.3313 39 78.5999 39.2626 78.5999 39.5865V78.0135C78.5999 78.3374 78.3313 78.6 77.9999 78.6C77.6685 78.6 77.3999 78.3374 77.3999 78.0135V39.5865C77.3999 39.2626 77.6685 39 77.9999 39Z" fill="black"/>
</g>
<defs>
<clipPath id="clip0_166612_4130">
<rect width="71.4" height="79.2" fill="white" transform="translate(42.6)"/>
</clipPath>
</defs>
</svg>
